<svg width="545" height="454" viewBox="0 0 545 454" fill="none" xmlns="http://www.w3.org/2000/svg">
<path d="M231.296 0.00267744C236.651 -0.0532971 242.267 0.786323 247.715 0.842298C250.999 3.43579 252.473 3.82761 256.615 3.69701C259.6 6.57037 263.033 6.68231 266.485 8.41753C269.526 14.3881 275.945 17.1682 279.21 23.1575C281.766 21.5716 283.8 19.3885 286.281 17.7093C289.491 17.4481 291.767 15.8248 294.528 14.4068C298.465 7.82046 308.279 11.2722 314.847 9.77957C320.351 10.0594 327.18 8.30557 332.237 10.2647C334.737 17.4108 326.527 20.564 321.695 23.4933C320.892 25.1539 320.127 26.8332 319.381 28.5124C318.038 29.4267 316.676 30.3036 315.295 31.1432C318.243 30.4902 321.228 30.061 324.214 29.52C331.957 30.6394 339.401 30.4528 346.641 33.8113C354.514 34.595 359.254 39.7446 367.071 39.1476C371.811 39.2035 375.636 42.9538 380.543 43.7002C389.984 44.036 396.253 51.7978 405.265 53.0106C411.105 56.2944 417.803 59.5223 423.942 62.1718C424.763 63.2726 425.584 64.3921 426.405 65.5116C433.681 67.2468 437.954 72.3592 445.511 73.7585C446.611 75.4191 447.712 77.0983 448.776 78.7962C453.328 80.1956 456.258 83.3302 460.568 85.1027C463.646 91.0174 468.927 97.7903 475.401 100.067C477.808 103.724 478.853 107.25 482.995 109.414C484.823 113.183 487.286 116.504 489.32 120.161C493.052 122.755 495.794 126.244 498.724 129.696C498.836 133.633 499.638 135.573 501.952 138.689C502.679 142.327 504.414 145.593 505.385 149.175C511.15 155.202 514.415 159.829 515.721 168.318C513.912 173.673 517.587 175.147 520.33 178.86C521.3 181.416 520.199 184.439 520.89 187.144C523.091 191.958 522.606 196.529 526.842 200.298C527.551 209.814 530.144 220.263 533.95 229.107L532.047 232.988C532.85 234.126 533.596 235.301 534.305 236.477C533.783 239.649 534.249 242.13 535.742 243.921C535.742 248.063 535.2 252.019 536.021 256.161C538.223 259.37 537.831 260.994 537.234 264.688C538.764 270.752 539.884 277.096 540.667 283.253C541.955 286.387 539.212 288.72 537.981 291.369C540.555 293.683 543.615 294.298 544.977 297.806C545.276 302.359 542.571 304.878 539.567 307.788C539.79 312.341 540.462 316.651 539.287 321.185C534.697 322.584 528.241 322.342 523.763 320.718C521.282 317.92 521.692 315.252 520.61 312.024C516.654 310.643 515.33 315.83 513.706 318.405C513.035 320.103 512.344 321.819 511.673 323.517C510.422 320.644 509.303 317.752 507.978 314.916C504.526 318.815 503.034 323.424 501.299 328.2C496.989 330.551 492.455 331.13 488.368 333.667C485.682 335.477 483.014 335.906 479.898 336.466C477.808 338.089 475.923 339.974 474.002 341.709C466.165 343.705 458.87 346.523 451.78 350.404C446.164 354.098 441.406 346.933 443.925 341.839C443.066 332.921 447.003 326.036 448.403 317.901C451.518 313.61 452.227 306.519 450.25 301.594C453.067 297.06 451.444 293.347 455.194 289.111C452.731 282.88 455.549 277.17 453.552 271.274C451.127 271.311 448.757 271.2 446.425 270.938C444.652 269.52 443.066 267.916 441.312 266.498C437.655 266.386 435.081 267.897 432.692 264.24C429.558 259.24 424.725 256.963 420.714 252.84C418.829 252.784 417.075 252.485 415.415 251.926C412.653 248.474 411.776 244.649 407.485 242.727C403.474 241.141 403.007 237.913 400.787 234.685C396.328 235.208 392.111 239.014 389.928 242.82C387.465 244.369 384.032 243.25 381.681 245.787C379.89 247.728 376.139 247.392 373.676 247.336C365.691 247.13 355.41 247.037 349.141 241.346C345.689 238.809 343.245 234.014 339.103 232.838C338.524 238.846 332.759 239.499 332.274 245.339C330.781 250.881 325.389 252.504 322.684 257.878C317.721 259.09 314.101 260.061 310.556 264.016C308.485 266.61 306.078 265.527 303.148 265.77C301.674 267.076 300.145 268.326 298.596 269.539C292.047 269.296 285.162 271.106 278.949 273.084C274.545 274.129 272.698 270.005 268.164 270.696C262.418 271.405 257.231 268.774 251.428 269.222C246.838 268.979 242.994 270.733 239.263 267.263C235.307 266.348 231.258 266.031 227.303 264.539C231.669 266.796 235.065 270.173 230.792 274.745C225.008 274.67 217.899 277.45 214.429 271.554C212.32 268.867 213.981 266.031 215.642 263.606C218.366 262.579 221.538 264.184 224.056 263.606C218.981 261.143 213.309 257.467 208.104 255.676C205.566 251.049 201.723 248.231 197.898 244.798C187.971 244.164 175.247 251.385 166.123 242.578C160.301 242.951 158.771 238.678 153.995 236.626C152.465 234.256 151.271 231.7 149.648 229.387C147.241 232.335 146.849 236.887 146.046 240.507C141.886 244.444 140.039 249.202 138.21 254.482C133.116 256.422 128.676 261.348 126.567 266.367C122.089 268.401 118.32 272.431 114.943 275.92C109.962 276.219 106.342 278.961 101.248 278.42C101.08 282.096 100.67 285.529 99.8488 289.111C103.58 293.365 101.957 297.06 104.775 301.612C102.853 306.538 103.487 313.628 106.622 317.901C108.021 326.036 111.958 332.921 111.1 341.839C113.656 346.952 108.786 354.21 103.189 350.31C96.0985 346.56 88.8591 343.668 81.06 341.728C79.1009 339.955 77.2351 338.108 75.1267 336.466C72.0294 335.906 69.3426 335.477 66.6558 333.667C62.5697 331.13 58.0358 330.551 53.7257 328.2C51.9719 323.387 50.4979 318.741 46.9715 314.86C45.7773 317.696 44.7511 320.588 43.6503 323.461C42.848 321.782 42.1017 320.084 41.318 318.405C39.7507 315.923 38.2767 310.606 34.4891 311.874C33.0151 315.83 34.4891 319.3 29.4701 321.39C25.0667 322.08 19.9171 322.659 15.6443 321.092C13.7412 315.121 16.9504 309.262 14.6555 303.683C15.1219 299.467 15.1592 294.933 16.8012 291.033C15.7936 289.186 14.8047 287.32 13.8718 285.436C9.67372 286.126 6.68841 284.447 2.73287 283.645C-2.11826 280.398 0.587175 275.379 2.49031 271.256C8.05045 269.614 11.1477 266.759 15.4391 263.121C16.5213 260.508 16.9318 257.803 18.5737 255.452C21.1299 251.198 17.3236 245.227 20.7567 241.925C20.7567 240.096 20.738 238.286 20.7194 236.477C21.4284 235.301 22.1747 234.126 22.977 232.988L21.0739 229.107C24.8802 220.263 27.4736 209.814 28.1827 200.298C29.6193 198.489 31.3732 196.959 31.8023 194.57C32.5673 190.13 35.0862 186.921 34.3399 182.2C33.4069 175.856 42.027 175.688 39.2843 168.281C40.5717 159.847 43.9488 155.146 49.6396 149.138C50.6098 145.555 52.3823 142.309 53.11 138.689C55.3676 135.592 56.1886 133.595 56.3006 129.696C59.2299 126.244 61.9727 122.755 65.7043 120.161C67.738 116.504 70.2009 113.183 72.0294 109.414C76.1715 107.25 77.2164 103.724 79.6233 100.085C85.8925 98.0515 88.43 93.0884 92.9266 88.797C93.3744 87.5656 93.8222 86.3528 94.27 85.1214C98.748 83.4981 101.603 80.1769 106.23 78.8149C107.293 77.1357 108.376 75.4564 109.476 73.8145C112.965 72.1912 116.753 72.0979 119.832 69.4298C122.407 67.1535 125.522 66.7244 128.62 65.5116C129.441 64.3921 130.262 63.2726 131.083 62.1718C137.221 59.5223 143.901 56.2944 149.741 53.0106C157.671 51.8351 163.249 46.1257 170.992 44.0547C180.564 43.8868 184.482 36.4608 194.688 39.8193C198.383 35.0054 203.141 35.4719 208.253 33.8486C215.567 30.4715 223.068 30.6021 230.885 29.5573C234.524 30.2476 237.789 31.1432 241.483 30.0424C242.845 25.807 238.087 23.7359 235.83 20.8999C234.244 20.4521 232.677 19.9669 231.109 19.4632C229.766 17.8213 229.206 15.3397 227.172 14.5934C223.833 13.25 222.918 9.98482 220.847 7.18609C219.821 1.19681 227.359 1.55131 231.296 0.00267744Z" fill="#565656"/>
<path d="M435.454 183.394C440.118 183.226 443.626 181.827 448.067 183.058C449.503 184.644 450.921 186.249 452.339 187.872C450.287 193.824 449.447 201.399 450.268 207.594C447.152 212.557 450.455 217.296 448.179 222.558C446.369 224.349 443.383 224.554 441.312 226.233C437.693 223.248 434.633 220.095 430.192 218.304C426.647 212.426 418.736 211.027 414.78 204.982C414.333 202.015 416.628 199.888 417.057 196.94C421.535 194.57 424.539 190.839 428.233 187.499C431.759 186.79 433.121 186.193 435.454 183.394Z" fill="#E3F2FF"/>
<path d="M419.277 17.2802C423.867 17.1682 427.99 19.6498 432.375 18.5862C434.875 17.5414 437.394 17.0936 439.913 17.2802C446.891 18.7355 454.989 20.1908 462.154 19.09C467.434 24.3889 473.722 18.1944 480.942 20.9185C484.152 23.2508 487.977 22.2619 490.999 24.8181C491.578 29.5759 493.929 33.3822 496.298 37.4124C496.503 43.0658 496.167 47.5624 499.936 52.171C498.948 57.5072 502.082 60.3246 504.191 64.8212C501.69 72.1726 506.448 76.3147 506.374 83.4981C505.422 87.5283 505.347 91.5958 505.944 95.6632C507.568 99.6001 508.948 103.5 507.698 107.772C506.523 111.224 507.437 112.773 508.836 115.851C506.243 120.833 506.672 125.834 509.844 130.423C507.064 136.208 506.616 137.14 508.426 143.652C507.456 145.518 506.448 147.365 505.385 149.175C504.414 145.593 502.679 142.327 501.952 138.689C499.638 135.573 498.836 133.633 498.724 129.696C495.794 126.244 493.052 122.755 489.32 120.161C487.286 116.504 484.823 113.183 482.995 109.414C478.853 107.25 477.808 103.724 475.401 100.067C468.927 97.7903 463.646 91.0174 460.568 85.1027C456.258 83.3302 453.328 80.1956 448.776 78.7962C447.712 77.0983 446.611 75.4191 445.511 73.7585C437.954 72.3592 433.681 67.2468 426.404 65.5116C425.584 64.3921 424.763 63.2726 423.942 62.1718C417.803 59.5223 411.105 56.2945 405.265 53.0106C396.253 51.7978 389.984 44.036 380.543 43.7002C375.636 42.9538 371.811 39.2035 367.071 39.1476C359.254 39.7446 354.514 34.595 346.641 33.8113C346.044 33.3635 345.465 32.9157 344.887 32.4493C347.35 32.2814 349.813 32.1134 352.275 31.9269C354.608 29.464 355.69 27.1504 359.59 27.5795C364.049 28.4005 364.982 27.2436 368.247 24.6875C372.632 24.7621 374.927 25.3032 378.658 22.5045C381.065 22.859 383.472 23.0642 385.86 23.1202C387.054 22.1686 388.267 21.2544 389.499 20.3588C391.383 20.5827 393.268 20.8066 395.152 20.9931C402.541 18.1571 411.497 18.0265 419.277 17.2802Z" fill="#E3F2FF"/>
<path d="M426.61 6.27185C427.916 6.81294 429.203 7.37269 430.491 7.95109C435.36 6.34649 440.249 7.80183 445.361 7.68988C451.892 9.9102 461.557 5.5815 468.106 9.85423C475.084 10.9924 483.611 9.76093 489.805 13.2687C493.052 13.6045 495.533 13.5672 498.295 15.6569C501.765 25.8256 505.609 32.0575 508.445 42.7673C510.329 50.753 514.77 58.5894 513.688 66.8177C516.561 70.8292 517.4 71.0718 515.553 76.1095C518.352 82.6025 514.62 91.0734 519.136 96.3909C519.472 102.474 517.736 108.052 519.751 114.098C521.337 117.4 519.565 120.609 520.647 123.856C522.979 128.856 519.21 134.23 519.341 139.659C521.207 142.738 520.778 145.667 520.871 149.1C517.102 156.023 521.86 162.236 515.721 168.318C514.415 159.829 511.15 155.202 505.385 149.175C506.448 147.365 507.456 145.518 508.426 143.652C506.616 137.14 507.064 136.208 509.844 130.424C506.672 125.834 506.243 120.833 508.836 115.851C507.437 112.773 506.523 111.224 507.698 107.772C508.948 103.5 507.568 99.6002 505.944 95.6633C505.347 91.5958 505.422 87.5283 506.374 83.4981C506.448 76.3147 501.69 72.1726 504.191 64.8213C502.082 60.3246 498.948 57.5073 499.936 52.171C496.167 47.5624 496.503 43.0658 496.298 37.4124C493.929 33.3822 491.578 29.5759 490.999 24.8181C487.977 22.2619 484.152 23.2508 480.942 20.9185C473.722 18.1944 467.434 24.389 462.154 19.09C454.989 20.1909 446.891 18.7355 439.913 17.2802C437.394 17.0936 434.875 17.5414 432.375 18.5863C427.99 19.6498 423.867 17.1682 419.277 17.2802C411.497 18.0265 402.541 18.1571 395.152 20.9932C393.268 20.8066 391.383 20.5827 389.499 20.3588C388.267 21.2544 387.054 22.1686 385.86 23.1202C383.472 23.0642 381.065 22.859 378.658 22.5045C374.927 25.3032 372.632 24.7621 368.247 24.6875C364.982 27.2437 364.049 28.4005 359.59 27.5795C355.69 27.1504 354.608 29.464 352.276 31.9269C349.813 32.1135 347.35 32.2814 344.887 32.4493C345.465 32.9158 346.044 33.3635 346.641 33.8113C339.401 30.4529 331.957 30.6395 324.214 29.52C325.389 28.046 326.602 26.6279 327.852 25.2286C333.058 25.3965 337.368 23.2881 342.387 22.4672C345.764 21.9634 348.096 18.3437 351.063 17.3735C353.563 17.3921 355.802 16.6085 357.78 15.0412C365.206 14.9852 373.061 12.7836 379.946 10.1154C385.86 11.888 389.834 6.40246 395.021 9.42509C400.171 9.48107 404.649 7.35402 410.079 7.93243C416.012 6.25319 420.826 8.93997 426.61 6.27185Z" fill="#56585D"/>
<path d="M126.437 18.8475C134.068 16.4779 142.893 17.5414 150.655 18.8848C156.234 18.9781 159.723 22.1313 165.526 20.3588C166.757 21.2544 167.97 22.1686 169.164 23.1202C171.552 23.0456 173.959 22.859 176.366 22.5045C180.098 25.1539 182.019 24.9674 186.553 24.6129C189.856 27.0198 191.013 28.4938 195.435 27.5795C199.334 27.1504 200.416 29.464 202.749 31.9269C205.268 32.1694 207.768 32.2254 210.268 32.5426L208.253 33.8487C203.141 35.4719 198.383 35.0055 194.688 39.8193C184.482 36.4608 180.564 43.8868 170.992 44.0547C163.249 46.1258 157.671 51.8352 149.741 53.0106C143.901 56.2945 137.221 59.5223 131.083 62.1718C130.262 63.2726 129.441 64.3921 128.62 65.5116C125.522 66.7244 122.406 67.1535 119.832 69.4298C116.753 72.098 112.965 72.1913 109.476 73.8145C108.376 75.4564 107.293 77.1357 106.23 78.8149C101.603 80.177 98.7479 83.4981 94.2699 85.1214C93.8221 86.3528 93.3743 87.5656 92.9266 88.797C88.4299 93.0884 85.8924 98.0515 79.6233 100.085C77.2164 103.724 76.1715 107.25 72.0294 109.414C70.2009 113.183 67.738 116.504 65.7043 120.161C61.9726 122.755 59.2299 126.244 56.3005 129.696C56.1886 133.595 55.3676 135.592 53.11 138.689C52.3823 142.309 50.6098 145.555 49.6395 149.138C48.5574 147.328 47.5312 145.481 46.5982 143.633C48.4268 137.159 47.9416 136.189 45.1802 130.423C48.2962 125.964 48.8186 120.684 46.1878 115.851C49.9754 110.179 45.2735 106.075 47.4192 99.9733C50.0314 94.7677 49.8448 89.0769 48.6506 83.4981C48.576 76.3147 53.3339 72.1726 50.8337 64.8213C52.942 60.3246 56.058 57.5073 55.1064 52.171C58.8567 47.5438 58.5208 43.0658 58.7261 37.4124C61.077 33.3822 63.4653 29.5946 64.0063 24.8554C67.029 22.2619 70.8539 23.2695 74.0818 20.9185C81.3025 18.1944 87.5903 24.389 92.8706 19.09C98.8785 20.4894 104.271 18.4183 110.279 18.5303C116.511 15.3584 120.447 18.8661 126.437 18.8475Z" fill="#E3F2FF"/>
<path d="M124.571 7.95111C128.508 5.43225 129.702 6.68235 133.751 7.78318C140.15 6.49577 146.177 8.43622 152.67 8.26829C157.82 10.7685 162.615 8.06306 167.821 9.61169C171.478 11.1603 174.687 9.03328 178.045 11.2536C182.131 13.1194 186.796 13.0448 190.994 14.7613C194.726 15.0785 197.282 14.2389 200.416 16.9817C205.753 16.5339 207.301 20.4334 211.686 22.2619C217.022 23.0829 221.668 25.3592 227.172 25.2286C228.441 26.6466 229.672 28.0833 230.885 29.5573C223.067 30.6022 215.567 30.4716 208.253 33.8487L210.268 32.5426C207.768 32.2254 205.268 32.1695 202.749 31.9269C200.416 29.464 199.334 27.1504 195.435 27.5795C191.013 28.4938 189.856 27.0198 186.553 24.6129C182.019 24.9674 180.098 25.154 176.366 22.5045C173.959 22.859 171.552 23.0456 169.164 23.1202C167.97 22.1687 166.757 21.2544 165.526 20.3588C159.723 22.1313 156.234 18.9781 150.655 18.8848C142.893 17.5414 134.068 16.4779 126.437 18.8475C120.447 18.8662 116.511 15.3584 110.279 18.5303C104.271 18.4184 98.8785 20.4894 92.8706 19.0901C87.5903 24.389 81.3025 18.1945 74.0818 20.9186C70.8539 23.2695 67.029 22.2619 64.0064 24.8554C63.4653 29.5946 61.077 33.3822 58.7261 37.4124C58.5208 43.0658 58.8567 47.5438 55.1064 52.171C56.058 57.5073 52.942 60.3247 50.8337 64.8213C53.3339 72.1726 48.576 76.3147 48.6506 83.4982C49.8448 89.077 50.0314 94.7677 47.4192 99.9733C45.2735 106.075 49.9754 110.179 46.1878 115.851C48.8186 120.684 48.2962 125.964 45.1802 130.424C47.9416 136.189 48.4268 137.159 46.5982 143.634C47.5312 145.481 48.5574 147.328 49.6395 149.138C43.9488 155.146 40.5717 159.847 39.2842 168.281C33.1457 162.217 37.9968 156.06 34.1532 149.1C34.2465 145.667 33.8547 142.757 35.6832 139.659C35.8138 134.248 32.0635 128.838 34.3771 123.856C35.4593 120.609 33.6868 117.381 35.2727 114.098C37.3065 108.034 35.4966 102.455 35.9631 96.3723C39.6201 92.0623 37.661 85.3453 38.4819 79.8598C39.4148 77.7514 39.5641 75.811 38.9297 74.0758C37.3811 70.8106 39.8253 69.3739 41.3366 66.7991C40.2171 58.5894 44.6951 50.7903 46.5796 42.7673C49.6582 31.6097 53.1286 26.1988 56.7483 15.6569C59.5097 13.6978 61.5808 13.4739 64.9019 13.3806C72.3652 8.75341 82.9817 12.485 90.4077 8.08172C95.1469 8.28696 99.2517 7.27941 103.972 8.54817C110.54 7.85782 118.078 6.29053 124.571 7.95111Z" fill="#56585D"/>
<path d="M406.198 212.687C407.448 213.042 408.661 213.49 409.817 214.012C411.235 218.602 414.874 220.095 417.374 223.864C420.21 224.554 420.994 225.692 422.729 227.857C425.882 229.61 429.129 229.088 431.461 231.756C434.26 234.779 437.786 235.786 441.499 237.26C445.249 236.757 448.85 234.629 452.433 233.435L452.713 238.734C451.145 240.134 449.522 241.421 447.917 242.764C444.204 245.843 445.212 255.135 439.932 255.9C436.816 254.202 435.678 250.937 432.45 249.407C427.86 246.664 425.938 242.261 420.322 241.029C419.632 239.835 418.923 238.622 418.232 237.428C411.702 235.208 408.026 225.618 405.153 219.815C405.507 217.445 405.862 215.057 406.198 212.687Z" fill="white"/>
<path d="M149.647 229.387C151.271 231.7 152.465 234.256 153.995 236.626C158.771 238.678 160.301 242.951 166.123 242.578C175.247 251.385 187.971 244.164 197.898 244.798C201.723 248.231 205.566 251.049 208.104 255.676C213.309 257.467 218.981 261.143 224.056 263.606C221.538 264.184 218.366 262.579 215.642 263.606C213.981 266.031 212.32 268.867 214.429 271.554C217.899 277.45 225.008 274.67 230.792 274.745C235.065 270.173 231.669 266.796 227.303 264.539C231.258 266.031 235.307 266.348 239.263 267.263C242.994 270.733 246.838 268.979 251.428 269.222C257.231 268.774 262.418 271.405 268.164 270.696C272.698 270.005 274.545 274.129 278.949 273.084C285.162 271.106 292.047 269.296 298.596 269.539C300.144 268.326 301.674 267.076 303.148 265.77C306.078 265.527 308.485 266.61 310.556 264.016C314.101 260.061 317.721 259.09 322.684 257.878C325.389 252.504 330.781 250.881 332.274 245.339C332.759 239.499 338.524 238.846 339.103 232.838C343.245 234.014 345.689 238.809 349.141 241.346C355.41 247.037 365.691 247.13 373.676 247.336C376.139 247.392 379.89 247.728 381.681 245.787C384.032 243.25 387.465 244.369 389.928 242.82C392.111 239.014 396.327 235.208 400.787 234.685C403.007 237.913 403.474 241.141 407.485 242.727C411.776 244.649 412.653 248.474 415.415 251.926C417.075 252.485 418.829 252.784 420.714 252.84C424.725 256.963 429.558 259.24 432.692 264.24C435.081 267.897 437.655 266.386 441.312 266.498C443.066 267.916 444.652 269.52 446.425 270.938C448.757 271.2 451.127 271.311 453.552 271.274C455.549 277.17 452.731 282.88 455.194 289.111C451.444 293.347 453.067 297.06 450.25 301.594C452.227 306.52 451.518 313.61 448.402 317.901C447.003 326.036 443.066 332.921 443.925 341.839C441.406 346.933 446.163 354.098 451.78 350.404C452.153 351.411 452.489 352.437 452.843 353.464C448.253 351.766 444.857 353.053 444.148 358.053C444.13 364.024 443.104 369.64 442.432 375.536C441.051 378.857 440.081 381.525 440.081 385.182C437.264 388.28 436.853 391.918 434.894 395.426C431.703 397.926 429.408 401.061 426.722 404.027C429.614 398.71 425.285 397.422 422.524 393.803C419.426 387.365 414.034 381.861 407.877 378.298C405.097 375.909 401.067 378.951 401.421 382.104C406.832 392.198 414.333 400.501 422.225 408.692C418.064 410.744 415.042 414.028 411.31 416.472C407.205 416.024 405.731 411.994 403.53 409.046C399.686 403.486 397.354 398.001 392.185 393.989C391.532 392.366 390.935 390.724 390.375 389.063C396.551 385.854 399.014 377.701 405.339 373.726C405.825 369.043 406.403 366.3 409.388 362.569C412.448 359.285 410.321 355.87 412.635 352.195C414.221 349.601 412.15 346.635 411.422 344.041C410.918 340.048 413.008 337.455 414.202 333.798C413.139 328.723 413.194 323.741 413.064 318.573C413.362 312.192 407.28 310.307 409.071 303.366C407.485 301.258 405.974 299.094 404.518 296.892C412.989 297.713 422.561 298.814 430.864 296.425C433.159 290.921 428.979 290.231 428.214 285.287C427.487 282.768 424.371 280.939 422.747 278.905C416.404 278.14 410.62 278.737 404.425 278.122C397.895 281.76 392.409 278.402 385.767 277.842C379.311 279.633 373.546 277.711 367.09 278.047C358.974 278.178 349.458 278.271 341.36 278.308C336.472 280.547 331.117 277.245 327.273 280.734C325.053 282.637 322.18 282.898 319.736 284.484C317.049 291.108 322.87 298.254 318.187 305.101C316.844 310.997 314.828 316.483 315.668 322.659C314.94 323.816 314.25 324.991 313.597 326.167C313.765 329.189 315.426 331.41 314.287 334.432C312.851 338.033 315.314 340.888 314.437 344.638C313.821 351.784 316.377 358.035 317.123 365.013C318.336 368.595 319.68 371.954 323.206 373.782C325.426 374.734 324.997 378.018 325.781 380.051C328.747 381.992 331.117 383.317 332.946 386.526C340.521 390.668 348.021 393.187 356.1 396.097C358.75 401.546 362.426 406.378 365.392 411.677C370.672 416.808 374.74 422.779 379.535 428.339C374.423 427.947 371.046 430.354 367.09 433.059C361.082 434.552 354.477 432.612 348.88 435.074C346.734 435.653 345.055 437.5 342.872 437.799C339.308 437.519 335.95 437.22 332.479 438.284C329.065 439.161 325.725 438.022 322.31 439.142C317.254 440.15 311.974 438.321 307.384 440.635C301.301 439.627 298.503 437.649 292.439 441.026C283.035 440.243 273.855 439.758 264.433 440.989C260.944 441.568 258.611 438.302 255.16 439.086C250.719 439.683 248.517 441.866 243.983 439.366C232.975 440.075 221.78 437.351 210.94 437.519C202.04 430.447 191.722 437.108 183.493 430.242C180.564 421.211 173.996 413.17 168.418 405.595C168.119 403.99 167.839 402.367 167.559 400.762C160.208 394.008 157.596 384.604 150.636 377.514C145.524 375.928 143.957 379.529 144.479 383.988C147.894 393.411 155.114 400.146 158.398 409.643C161.048 416.024 166.645 420.167 169.63 426.156C164.686 425.298 162.13 421.585 156.812 422.219C151.886 419.663 147.241 416.92 141.774 415.745C142.445 413.897 143.061 412.032 143.584 410.147C137.445 403.076 136.549 394.194 130.728 387.03C128.564 384.25 125.97 384.94 123.302 386.489C122.257 390.575 123.694 395.221 123.825 399.4C121.772 396.974 119.57 394.978 118.451 391.899C117.425 387.272 113.954 385.78 114.514 380.481C111.547 373.26 111.286 365.33 110.801 357.643C109.943 353.221 107.181 351.99 102.871 353.146L103.189 350.31C108.786 354.21 113.656 346.952 111.1 341.839C111.958 332.921 108.021 326.036 106.622 317.901C103.487 313.628 102.853 306.538 104.775 301.612C101.957 297.06 103.58 293.366 99.8488 289.111C100.67 285.529 101.08 282.096 101.248 278.42C106.342 278.961 109.962 276.219 114.943 275.92C118.32 272.431 122.089 268.401 126.567 266.367C128.676 261.348 133.116 256.422 138.21 254.482C140.039 249.202 141.886 244.444 146.046 240.507C146.849 236.887 147.241 232.335 149.647 229.387Z" fill="#FDF6E9"/>
<path d="M339.364 263.587C341.584 266.572 342.76 269.67 339.793 272.655C336.024 277.17 331.248 274.465 325.911 275.006C320.668 274.483 321.769 267.263 325.725 265.49C329.867 263.96 335.035 262.934 339.364 263.587Z" fill="#5C5650"/>
<path d="M244.039 13.5859C249.711 13.1941 257.921 14.3882 261.578 19.09C267.213 23.0642 272.418 29.0908 274.956 35.4906C276.467 36.2183 277.979 36.9086 279.509 37.5617C282.438 36.7407 282.83 34.9122 284.248 32.5986C288.838 29.5573 290.33 26.5906 296.376 26.0122C297.794 24.5569 299.062 22.8403 300.63 21.5343C303.708 21.1424 306.712 20.5267 309.735 19.9483C308.466 22.8217 307.57 25.2659 304.38 26.4041C301.413 27.4303 299.417 30.6954 296.935 32.5799C296.32 34.9309 296.693 36.9459 297.588 39.1663C301.469 40.2298 305.723 40.1178 309.716 40.0619C314.026 42.8046 315.817 42.4874 320.743 41.4052C321.919 42.2822 323.113 43.1405 324.307 43.9614C326.229 43.9987 328.15 43.9241 330.072 43.7748C335.353 47.4132 341.64 43.4577 347.63 46.2564C353.376 49.0551 360.28 47.9543 365.094 51.9471C367.501 53.9436 372.146 51.3501 374.404 53.6823C377.464 56.5184 383.248 54.1488 385.692 57.4326C387.446 59.6903 391.42 59.0746 393.324 61.0523C394.965 62.8435 398.137 62.4517 400.358 63.3659C406.198 65.0452 408.698 70.4001 415.004 71.4449C418.717 77.0797 426.348 76.5573 431.647 80.5128C436.443 82.6025 439.26 86.5394 444.018 88.7224C447.712 90.1591 448.402 94.096 452.246 95.2901C455.81 97.6224 458.161 102.063 461.836 104.414C467.079 108.071 470.102 113.799 473.125 119.173C474.412 119.676 475.718 120.161 477.006 120.647C480.476 125.834 481.987 131.114 487.342 134.939C488.032 140.35 490.701 146.563 494.675 150.369C494.861 151.824 495.011 153.28 495.16 154.735C496.279 155.855 497.418 156.955 498.574 158.019C497.921 166.042 502.045 174.867 507.959 180.297C508.93 183.264 507.232 185.932 507.698 188.861C508.93 190.242 510.18 191.604 511.43 192.947C511.486 198.003 511.878 200.242 514.882 204.366C514.061 213.21 518.389 222.707 522.177 230.543C522.27 234.462 523.073 238.156 523.987 241.925C524.92 247.392 523.24 252.15 526.338 256.945C525.666 263.009 527.271 268.643 526.954 274.633C529.118 278.01 528.875 282.693 529.043 286.611C526.599 286.649 524.211 286.443 523.073 283.962C520.46 279.95 519.117 275.622 516.859 271.498C517.27 267.057 513.706 262.486 509.098 264.651C505.366 265.863 505.366 269.147 506.523 272.3C509.321 278.14 512.064 284.316 514.994 289.951C519.397 294.131 523.744 297.582 529.398 300.082C524.024 301.463 519.36 298.161 513.837 297.023C512.848 295.082 511.635 293.496 510.142 292.302C505.515 289.597 499.619 283.085 493.984 284.484C492.66 286.761 491.671 289.13 490.589 291.537C489.413 286.649 485.7 284.727 482.51 281.312C479.599 282.376 479.786 284.26 479.282 286.91C481.801 293.403 476.035 298.105 478.89 304.691C476.39 311.427 476.035 319.021 475.942 326.167C473.535 327.865 471.651 329.656 469.785 331.913C464.971 331.466 459.243 335.701 455.287 338.257C457.414 334.078 454.41 330.029 457.788 326.988C460.176 320.364 459.187 312.378 462.825 306.333C463.945 303.478 464.915 300.586 466.165 297.788C467.042 288.888 466.557 277.618 466.725 268.289C465.139 262.691 465.419 257.393 464.766 251.739C466.893 246.533 462.919 243.847 465.008 238.231C461.78 234.312 461.967 228.043 460.68 223.211C460.624 218.024 461.613 212.669 461.948 207.482C466.408 207.463 471.035 211.288 474.953 212.855C476.838 212.538 478.703 212.426 480.551 212.501C485.85 214.665 492.1 214.124 497.753 214.441C502.53 212.855 506.43 209.814 511.523 209.03C512.232 206.941 512.419 204.72 512.102 202.351C509.732 200.131 506.896 199.03 503.78 198.321C501.373 196.548 500.31 195.802 497.156 195.895C493.481 193.749 491.503 190.354 487.23 189.253C484.469 183.917 477.64 183.245 475.532 176.826C472.36 170.819 473.143 164.344 465.811 161.359C462.564 162.665 460.568 163.318 461.389 167.423C463.031 171.957 462.004 175.166 466.445 178.114C466.688 179.774 466.893 181.416 467.079 183.096C471.147 186.249 472.378 189.906 474.729 194.253C477.062 194.384 478.591 195.317 479.3 197.052C480.774 200.336 484.133 199.944 487.118 201.399C483.853 201.922 478.759 202.78 475.998 200.373C472.378 197.22 468.087 197.033 463.646 195.764C461.277 193.115 464.505 189.29 463.105 186.006C461.613 183.002 460.344 179.644 458.347 176.957C452.004 171.248 445.641 170.949 437.935 168.953C434.222 170.8 432.916 173.86 428.326 174.102C425.248 179.476 418.811 179.177 416.404 185.092C411.067 189.346 405.75 192.537 404.761 200.205C402.69 195.391 400.619 191.51 401.141 186.044C403.268 181.901 401.813 177.871 399.798 174.009C394.947 173.281 389.76 173.356 386.457 177.554C385.786 181.566 388.193 184.346 389.723 187.891C389.125 193.992 393.249 197.742 392.111 204.142C392.726 205.112 393.398 206.045 394.107 206.959C393.006 210.672 393.939 213.751 393.995 217.445C392.092 222.129 391.252 226.718 386.942 229.834C380.953 229.293 379.778 235.674 374.292 236.234C370.71 236.999 367.053 233.585 363.377 233.958C360.821 233.809 358.153 234.424 356.044 232.652C349.906 227.633 345.559 221.475 343.226 213.844C342.611 208.993 345.801 209.217 348.917 206.829C350.354 204.403 350.69 201.791 353.059 200.019C355.97 197.817 355.429 194.328 354.496 191.249C348.637 187.387 344.98 193.563 340.204 196.418C337.461 195.447 334.606 193.563 331.695 193.526C329.027 194.346 326.527 195.765 324.4 197.574C324.288 200.205 324.326 202.855 324.531 205.504C316.247 210.803 308.168 211.381 298.633 212.034C298.372 207.78 296.114 204.198 295.032 200.037C293.39 194.738 289.006 192.891 285.069 189.104C281.039 188.451 277.699 187.182 274.023 185.428C266.784 184.961 259.507 188.488 252.939 191.212C250.029 194.85 251.185 198.824 248.89 202.817C248.778 208.993 253.219 211.12 254.693 216.4C257.66 218.826 261.522 219.908 264.88 221.793C267.884 222.614 271.784 219.89 271.448 224.554C265.235 224.442 259.824 222.147 253.574 222.595C250.346 221.531 248.125 220.487 244.524 220.711C241.688 219.348 239.188 218.938 236.11 218.472C232.788 216.624 230.083 215.318 226.202 215.337C222.918 213.079 219.56 209.18 215.436 209.049C211.294 205.523 207.6 203.34 205.118 198.246C199.502 197.183 197.842 202.127 198.42 206.773C201.051 210.019 204.148 212.277 206.238 216.027C213.701 220.878 222.601 224.33 231.165 226.793C238.181 230.73 247.23 231.626 255.048 233.417C260.328 234.518 265.011 232.652 269.918 235.395C277.214 233.23 283.8 229.61 291.17 227.838C293.465 226.215 294.995 223.64 298.017 223.808C301.245 223.491 304.417 225.338 307.496 224.442C311.806 221.513 317.123 221.662 321.527 219.031C324.867 217.147 328.374 217.389 332.05 216.643C332.33 219.46 331.341 221.867 330.595 224.535C329.568 225.412 328.542 226.271 327.497 227.092C326.676 231.458 324.232 234.947 322.833 239.108C321.322 240.096 319.773 241.029 318.187 241.906C316.638 246.888 314.063 248.045 309.511 249.948C306.302 250.974 305.35 255.433 301.544 254.519C298.764 253.81 296.767 256.497 294.435 257.728C292.532 257.672 290.629 257.654 288.726 257.672C287.513 258.643 286.3 259.594 285.05 260.527C282.083 260.21 279.266 260.415 276.299 260.508C271.411 257.915 267.418 261.087 262.548 258.195C259.022 258.064 256.522 257.728 253.294 256.161C247.249 260.882 240.606 254.948 234.132 253.941C230.997 251.553 227.303 251.534 224.28 248.605C222.041 248.586 219.84 248.399 217.694 248.045C216.462 245.992 215.38 243.865 214.205 241.813C211.164 241.029 209.074 240.955 206.984 238.324C207.227 234.891 208.365 232.111 206.723 228.79C205.1 228.136 203.402 227.651 201.648 227.353C201.461 222.39 199.614 218.882 196.909 214.889C197.543 209.404 195.099 204.403 196.2 199.086C197.245 194.981 194.651 189.383 196.368 185.204C199.054 179.308 197.506 173.113 199.372 166.863C199.894 171.117 203.831 172.143 205.044 175.894C207.451 183.898 214.112 188.227 220.661 192.537C224.243 196.697 225.792 197.78 231.426 196.436C235.177 190.652 232.565 183.543 230.549 177.591C230.68 171.975 229.952 166.49 229.878 160.948C232.751 157.198 233.367 154.716 233.833 150.089C237.509 146.19 239.431 141.674 241.129 136.655C245.607 133.707 244.133 130.461 246.913 126.449C247.808 120.665 241.483 117.307 237.733 121.971C235.065 126.281 231.669 129.733 228.199 133.39C228.385 135.722 228.329 137.905 227.993 139.939C224.094 142.402 223.012 144.081 222.732 148.783C222.396 154.996 217.713 159.642 218.067 165.65C220.045 168.878 219.466 170.986 218.963 174.494C214.597 170.912 214.242 165.818 209.372 162.478C208.85 159.474 208.104 156.75 207.115 153.877C206.984 149.529 207.842 145.238 208.029 140.891C211.518 137.252 209.82 133.166 210.604 128.315C213.104 122.624 219.205 116.43 217.694 110.049C215.194 106.69 209.279 108.127 205.585 108.202C201.89 112.847 199.595 118.445 195.883 123.054C190.919 126.748 186.665 130.479 184.949 136.711C181.963 139.902 177.728 137.924 174.724 141.096C171.496 143.111 170.731 147.085 167.373 148.653C163.38 150.425 161.197 155.5 156.906 155.985C155.32 151.358 157.708 148.279 158.977 143.988C164.387 138.988 160.712 133.241 164.891 127.494C166.384 121.673 169.089 117.213 171.888 111.989C171.384 106.187 179.165 101 183.083 97.5291C183.904 95.0849 184.744 92.6406 185.527 90.1964C190.024 87.8455 192.729 82.7705 197.655 81.8749C199.222 79.2254 198.812 76.352 198.028 73.5347C191.143 68.6649 189.763 76.8931 183.326 77.173C181.74 80.4009 180.732 82.304 177.653 84.3937C176.366 87.0992 175.34 88.8904 172.952 90.7748C171.254 93.8161 169.574 95.9431 166.776 98.0515C163.137 106.485 156.346 110.739 155.954 120.647C154.181 125.367 153.659 129.64 149.461 132.662C149.33 137.29 146.886 140.741 147.539 145.537C145.692 148 143.938 149.418 143.863 152.757C142.11 157.459 141.102 162.217 142.557 167.162C138.098 171.49 139.479 179.942 143.882 183.562C149.274 185.652 153.454 181.192 153.752 176.043C159.07 172.46 161.178 167.423 167.653 165.855C168.156 164.456 168.66 163.075 169.164 161.676C172.653 158.728 176.795 157.31 179.426 153.373C181.702 152.589 184.016 151.955 186.255 151.097C186.703 146.115 190.919 146.955 194.576 145.219C194.595 148.279 194.763 151.339 194.782 154.381C191.89 157.739 191.237 161.303 190.677 165.576C190.154 168.654 187.449 170.539 186.74 173.356C186.311 178.935 184.576 183.991 185.415 189.645C183.083 193.395 182.355 196.418 185.229 200.205C185.191 206.138 185.844 211.885 186.367 217.725C185.938 221.942 188.83 223.491 190.938 226.588C190.77 228.734 190.565 230.898 190.304 233.044C185.154 235.227 181.646 237.074 175.844 235.674C171.552 230.32 166.477 233.1 161.887 228.976C160.021 227.726 160.227 224.517 158.678 222.856C155.73 219.964 155.954 215.71 155.096 211.829C155.432 208.751 154.536 205.933 157.092 203.62C157.857 200.149 158.641 195.932 157.689 192.462C153.976 189.589 151.588 187.947 146.625 188.693C143.397 194.272 141.513 201.157 144.871 207.146C141.475 210.206 141.904 210.075 142.315 214.703C139.553 217.968 140.804 220.748 140.804 224.573C138.994 227.297 138.509 228.734 138.154 231.98C136.475 234.872 134.945 238.249 132.818 240.824C130.262 242.41 129.944 244.183 129.086 246.869C126.026 248.959 124.813 252.355 121.679 254.258C118.6 256.553 117.425 259.837 113.264 260.602C110.26 260.229 107.368 259.408 104.532 258.381C100.875 252.803 101.92 248.045 103.804 242.13C102.927 237.466 102.778 233.603 103.412 228.883L104.812 227.185C105.334 223.659 103.73 220.711 105.502 217.371C108.133 212.613 102.853 208.527 98.2255 209.534C93.4304 212.37 96.8821 220.543 94.3446 224.778C92.5348 228.92 93.2624 234.686 90.0159 238.231C90.6689 242.111 91.0981 244.052 89.3442 247.672C90.8928 252 89.4562 256.068 89.792 260.583C87.7583 268.401 87.9635 276.797 88.6912 284.783C87.2918 292.992 89.1203 300.157 92.796 307.471C96.4343 314.002 94.1767 323.816 99.0092 329.357C98.5987 332.622 98.7293 335.085 99.7555 338.257C97.6471 336.037 94.8857 335.552 92.3855 333.966C89.6987 331.969 88.5792 331.857 85.2394 331.913C83.3736 329.656 81.4891 327.865 79.0822 326.167C78.9889 319.021 78.6344 311.427 76.1342 304.691C78.9889 298.105 73.2235 293.422 75.7424 286.928C75.6864 282.656 73.0929 281.331 70.2196 278.812C66.5999 277.767 64.2116 279.726 63.8385 283.309C64.4169 284.54 65.0139 285.79 65.5923 287.022C61.7301 294.075 66.376 298.459 66.0961 305.643C68.4097 311.259 69.1934 316.838 67.8313 322.79C66.6745 322.845 65.499 322.883 64.3422 322.864C61.133 319.524 60.2561 315.308 56.6364 312.248C56.1699 307.564 54.1735 303.422 53.0913 298.87C49.3784 295.381 51.7479 292.358 50.5165 288.253C48.5201 285.063 46.3371 282.096 44.6019 278.738C42.2696 278.103 40.6463 278.196 38.37 278.999C36.0378 282.357 37.5118 285.212 37.717 288.925C32.2688 291.612 30.1791 296.537 26.8206 301.295C26.746 295.194 27.2124 289.298 25.9064 283.29C27.4923 280.417 30.5336 278.644 33.6495 277.917C37.0453 276.499 38.9858 271.871 42.7174 270.789C45.7027 269.651 46.9528 268.531 47.3633 265.285C51.8786 262.057 57.6253 259.464 61.1517 255.21C63.9131 249.967 67.6447 245.582 71.7495 241.365C74.0072 239.593 73.2049 237.279 73.5967 234.741C76.2835 232.129 79.474 229.984 81.9182 227.166C82.2914 223.453 82.7019 219.983 80.8921 216.55C79.3994 216.233 77.8694 216.083 76.3208 216.083C72.2346 221.252 68.447 226.7 64.2863 231.849C61.133 235.544 59.4538 239.462 54.7146 241.421C54.0242 243.697 53.4085 245.992 52.5503 248.213C51.0763 248.493 49.6209 248.791 48.1469 249.127C44.8071 254.053 42.2696 256.142 36.8401 258.568C32.8659 262.859 29.7873 267.3 24.2271 269.8C26.69 264.221 29.8805 258.176 33.8734 253.605C32.9965 248.884 35.9258 246.422 36.4855 241.981C40.6463 237.279 41.0008 236.104 40.8889 229.685C44.5272 225.45 44.5272 219.591 43.4264 214.404C45.74 207.463 45.1243 200.802 45.9452 193.712C45.8706 191.548 43.2398 190.111 41.9711 188.469C41.5979 181.957 45.2549 177.442 43.7063 170.464C47.1207 164.381 52.0651 159.997 54.528 153.373C58.6888 150.705 59.3418 146.096 63.6705 143.839C66.973 141.954 67.085 138.297 67.6634 134.957C72.7571 131.133 74.9214 126.039 77.9441 120.665C79.2688 120.18 80.5749 119.695 81.8996 119.191C84.9222 113.799 87.9448 108.052 93.1878 104.414C97.9083 101.298 99.8115 96.0178 105.297 93.984C107.181 91.9876 108.357 89.8233 111.006 88.7224C115.764 86.5394 118.582 82.6025 123.377 80.5128C128.676 76.5573 136.307 77.0797 140.02 71.4449C146.681 70.3255 149.218 64.3735 155.711 63.0861C160.749 62.6942 163.193 59.3544 168.212 58.4775C171.907 53.4025 177.653 57.1714 182.038 52.7308C187.412 52.9173 189.016 53.0853 193.345 49.8014C201.144 48.8872 208.122 44.9503 215.903 45.0996C221.892 46.7415 224.523 42.6367 230.717 43.9614C231.911 43.1405 233.106 42.2822 234.281 41.4052C239.505 42.5061 241.222 42.9166 245.607 39.6514C249.058 41.3866 256.354 38.8864 256.895 34.8562C256.055 31.6097 255.383 28.2512 254.32 25.0607C250.42 22.1313 246.539 17.784 244.039 13.5859Z" fill="white"/>
<path d="M205.585 108.202C209.279 108.127 215.194 106.69 217.694 110.049C219.205 116.43 213.104 122.624 210.604 128.315C209.186 127.494 207.749 126.673 206.294 125.89C202.301 126.505 198.196 127.961 194.353 129.267C191.423 133.129 189.763 135.032 184.949 136.711C186.665 130.479 190.919 126.748 195.883 123.053C199.596 118.445 201.89 112.847 205.585 108.202Z" fill="#C5C5C5"/>
<path d="M399.798 174.009C401.813 177.871 403.268 181.901 401.141 186.044C395.824 183.637 393.958 184.01 389.723 187.891C388.193 184.346 385.786 181.566 386.457 177.554C389.76 173.356 394.947 173.281 399.798 174.009Z" fill="#C5C5C5"/>
<path d="M146.625 188.693C151.588 187.947 153.976 189.589 157.689 192.462C158.641 195.932 157.857 200.149 157.092 203.62C156.644 198.918 153.454 196.175 148.677 196.567C144.834 199.16 146.382 202.164 145.879 206.082L144.871 207.146C141.513 201.157 143.397 194.272 146.625 188.693Z" fill="#C5C5C5"/>
<path d="M331.695 193.526C334.606 193.563 337.461 195.447 340.204 196.418C337.685 198.451 335.763 200.634 333.767 203.153C330.8 204.441 327.703 205 324.531 205.504C324.326 202.855 324.288 200.205 324.4 197.574C326.527 195.764 329.027 194.346 331.695 193.526Z" fill="#C5C5C5"/>
<path d="M76.3208 216.083C77.8694 216.083 79.3994 216.233 80.8921 216.55C82.7019 219.983 82.2914 223.453 81.9182 227.166C79.474 229.984 76.2835 232.129 73.5967 234.741C72.6265 233.771 71.6376 232.801 70.63 231.849C68.503 231.775 66.3946 231.775 64.2863 231.849C68.447 226.7 72.2346 221.252 76.3208 216.083Z" fill="#C5C5C5"/>
<path d="M103.413 228.883C102.778 233.603 102.927 237.466 103.804 242.13C101.92 248.045 100.875 252.803 104.532 258.381C107.368 259.408 110.26 260.229 113.264 260.602C112.163 262.094 111.044 263.606 109.924 265.08C106.79 265.677 104.028 266.908 101.024 267.916C99.9234 263.027 101.565 258.232 100.707 253.232C99.9794 248.325 102.666 244.052 101.677 239.257C101.491 236.029 100.632 231.215 103.413 228.883Z" fill="#C5C5C5"/>
<path d="M452.713 238.734C452.713 246.142 455.138 253.064 453.795 260.77C449.037 260.154 444.913 256.795 439.932 255.9C445.212 255.135 444.204 245.843 447.917 242.764C449.522 241.421 451.145 240.134 452.713 238.734Z" fill="#C5C5C5"/>
<path d="M493.984 284.484C499.619 283.085 505.515 289.597 510.142 292.302C507.027 292.227 505.254 291.556 502.772 293.981C499.769 297.079 502.418 301.874 500.067 305.68C500.254 303.124 500.347 300.568 500.328 298.011C497.921 296.202 495.384 294.466 492.828 292.88C491.801 294.765 490.757 296.631 489.712 298.497C489.954 296.183 490.253 293.851 490.589 291.537C491.671 289.13 492.66 286.761 493.984 284.484Z" fill="#C5C5C5"/>
<path d="M492.828 292.88C495.384 294.466 497.921 296.202 500.328 298.011C500.347 300.568 500.254 303.124 500.067 305.68C499.134 307.676 498.574 309.878 498.407 312.248C494.768 315.308 493.891 319.524 490.682 322.864C489.525 322.883 488.35 322.845 487.193 322.789C484.693 313.404 489.488 307.62 489.712 298.497C490.757 296.631 491.801 294.765 492.828 292.88Z" fill="white"/>
<path d="M270.347 195.97C273.743 199.104 274.452 199.459 279.173 199.459C284.173 202.687 287.923 206.68 286.337 213.098C281.859 213.191 278.035 214.553 274.191 211.643C269.9 210.84 266.429 208.172 262.082 207.258C260.794 204.944 260.962 202.873 261.224 200.354C264.302 198.918 267.399 197.649 270.347 195.97Z" fill="white"/>
<path d="M46.9714 314.86C50.4978 318.741 51.9718 323.387 53.7257 328.2C50.9456 334.096 52.1771 340.589 49.1731 346.448C51.8412 352.941 49.397 360.647 51.2255 367.457C53.875 371.021 55.237 374.827 56.9162 378.876C59.9762 380.705 61.4688 382.085 63.4653 385.033C67.4768 386.302 69.5292 388.541 72.4025 391.414C74.7908 392.049 76.3394 393.168 78.2612 394.624C82.2167 395.351 85.9671 395.65 89.9599 395.836C95.3521 399.848 101.994 397.068 107.685 395.258C106.846 389.474 103.636 384.138 103.095 378.335L100.8 379.249L102.89 378.316C103.636 369.267 98.3748 361.934 102.871 353.146C107.181 351.99 109.943 353.221 110.801 357.643C111.286 365.33 111.547 373.26 114.514 380.481C113.954 385.78 117.425 387.272 118.451 391.899C119.57 394.978 121.772 396.974 123.825 399.4C129.609 405.613 134.124 411.602 141.774 415.745C147.241 416.92 151.886 419.663 156.812 422.219C162.13 421.585 164.686 425.298 169.63 426.156C173.828 430.41 178.344 428.283 183.493 430.242C191.722 437.108 202.04 430.447 210.94 437.519C221.78 437.351 232.975 440.075 243.983 439.366C248.517 441.866 250.719 439.683 255.16 439.086C258.611 438.302 260.944 441.568 264.433 440.989C273.855 439.758 283.035 440.243 292.439 441.026C298.503 437.649 301.301 439.627 307.384 440.635C311.974 438.321 317.254 440.15 322.31 439.142C325.725 438.022 329.065 439.161 332.479 438.284C335.95 437.22 339.308 437.519 342.872 437.799C345.055 437.5 346.734 435.653 348.88 435.075C354.477 432.612 361.082 434.552 367.09 433.059C371.046 430.354 374.423 427.947 379.535 428.339C382.39 428.563 384.256 426.977 386.625 425.708C389.293 425.372 391.215 423.88 393.454 422.555C396.178 422.312 398.585 422.331 401.123 421.174C405.022 420.446 407.765 417.984 411.31 416.472C415.042 414.028 418.064 410.744 422.225 408.692C423.867 407.274 425.154 405.52 426.722 404.027C429.408 401.061 431.703 397.926 434.894 395.426C436.853 391.918 437.264 388.28 440.081 385.182C440.081 381.525 441.051 378.857 442.432 375.536C443.104 369.64 444.13 364.024 444.148 358.053C444.857 353.053 448.253 351.766 452.843 353.464C455.922 362.886 451.63 369.192 452.134 378.372L454.243 379.268L452.004 378.41C451.313 384.194 448.197 389.474 447.339 395.239C452.377 396.9 456.929 398.691 462.322 397.46C465.848 394.456 469.281 396.284 473.442 395.109C477.509 395.295 478.89 392.198 482.622 391.414C485.495 388.541 487.547 386.302 491.559 385.033C493.537 382.085 495.067 380.723 498.089 378.876C499.974 374.883 501.037 371.021 503.817 367.476C505.627 360.647 503.183 352.941 505.851 346.448C502.828 340.589 504.079 334.096 501.299 328.2C503.034 323.424 504.526 318.815 507.978 314.916C509.303 317.752 510.422 320.644 511.672 323.517C512.344 321.819 513.035 320.103 513.706 318.405C512.68 322.286 513.296 325.924 513.893 329.805C513.911 334.376 514.714 339.75 517.307 343.612C518.184 344.899 518.277 346.485 517.606 348.407C515.553 353.837 519.901 357.4 515.217 362.084C515.927 368.297 511.281 372.122 511.84 378.484C509.508 381.563 507.642 384.884 505.105 387.813C499.209 391.414 494.302 396.956 488.592 401.117C485.01 401.583 482.864 403.15 479.935 405.035C471.352 404.27 464.505 408.916 456.239 407.684C450.567 405.8 444.69 407.908 439.577 403.244C438.794 406.248 437.599 408.897 434.969 410.707C430.323 413.767 429.782 419.01 424.128 420.633C421.087 422.909 417.896 423.992 415.769 427.331C412.038 427.369 411.683 429.402 409.22 431.548C404.91 433.003 400.283 431.959 397.092 435.056C393.473 436.903 389.685 436.418 386.047 438.396C382.241 438.713 379.778 441.232 375.841 440.952C368.34 444.814 362.985 446.643 354.365 445.616C352.257 446.922 351.548 449.031 348.768 448.359C344.738 446.997 341.472 448.994 337.33 448.826C333.505 450.71 331.901 450.897 327.665 449.945C321.191 450.803 313.448 448.975 307.384 451.344C298.372 454.386 290.424 449.908 281.486 453.21C278.837 452.128 276.187 452.128 273.538 453.21C264.004 449.777 255.439 454.871 245.775 450.729C238.031 449.535 229.616 450.206 221.873 450.449C217.825 448.415 214.074 448.844 209.82 447.725C204.95 448.676 204.503 449.236 200.659 445.616C192.039 446.643 186.684 444.814 179.183 440.952C173.026 440.653 167.112 436.418 160.861 436.455C158.883 435.578 157.111 434.44 155.32 433.246C149.89 432.126 145.673 433.059 142.277 427.891C138.938 427.798 138.583 426.492 136.605 424.253C133.676 422.741 131.325 420.521 128.191 419.458C124.944 416.976 123.582 413.002 120.056 410.707C117.35 408.841 116.175 406.21 115.559 403.057C110.615 407.945 104.457 405.762 98.7852 407.684C90.5197 408.916 83.6721 404.27 75.0893 405.035C72.16 403.15 70.0143 401.583 66.4319 401.117C62.551 397.478 57.7185 394.829 54.4533 390.631C48.7066 388.112 46.4676 383.055 43.1278 378.148C43.6876 371.917 39.0417 368.222 39.8067 362.084C37.3251 358.874 37.1012 358.109 37.8476 354.023C39.0417 350.366 35.5899 346.616 37.717 343.612C39.6014 341.112 39.844 338.22 40.9075 335.346C40.609 329.357 42.8853 324.263 41.318 318.405C42.1016 320.084 42.848 321.782 43.6503 323.461C44.7511 320.588 45.7773 317.696 46.9714 314.86Z" fill="#5C5650"/>
<path d="M53.7257 328.2C58.0358 330.551 62.5697 331.13 66.6559 333.667C65.4618 336.709 63.9504 339.712 63.0735 342.866C63.7265 352.4 61.3756 359.882 67.2343 368.334C74.3617 377.924 89.3069 384.977 100.8 379.249L103.095 378.335C103.636 384.138 106.846 389.474 107.685 395.258C101.995 397.068 95.3522 399.848 89.96 395.836C85.9671 395.65 82.2168 395.351 78.2613 394.624C76.3395 393.168 74.7909 392.049 72.4026 391.414C69.5292 388.541 67.4768 386.302 63.4653 385.033C61.4689 382.085 59.9762 380.705 56.9163 378.876C55.2371 374.827 53.875 371.021 51.2256 367.457C49.3971 360.647 51.8413 352.941 49.1732 346.448C52.1771 340.589 50.9457 334.096 53.7257 328.2Z" fill="#FFF8F3"/>
<path d="M66.6559 333.667C69.3426 335.477 72.0294 335.906 75.1267 336.466C77.2351 338.108 79.1009 339.955 81.06 341.728C88.8591 343.668 96.0985 346.56 103.189 350.31L102.871 353.146C98.3748 361.934 103.636 369.267 102.89 378.316L100.8 379.249C89.3069 384.977 74.3617 377.924 67.2343 368.334C61.3756 359.882 63.7265 352.4 63.0735 342.866C63.9504 339.712 65.4617 336.708 66.6559 333.667Z" fill="#F2A68E"/>
<path d="M501.299 328.2C504.079 334.096 502.828 340.589 505.851 346.448C503.183 352.941 505.627 360.647 503.817 367.476C501.037 371.021 499.974 374.883 498.089 378.876C495.067 380.723 493.537 382.085 491.559 385.033C487.547 386.302 485.495 388.541 482.622 391.414C478.89 392.198 477.509 395.295 473.442 395.109C469.281 396.284 465.848 394.456 462.322 397.46C456.929 398.691 452.377 396.9 447.339 395.239C448.197 389.474 451.313 384.194 452.004 378.41L454.243 379.268C471.688 387.123 495.589 369.976 491.708 350.348C492.809 343.593 491.092 339.601 488.368 333.667C492.455 331.13 496.988 330.551 501.299 328.2Z" fill="#FFF8F3"/>
<path d="M488.368 333.667C491.093 339.6 492.809 343.593 491.708 350.348C495.589 369.976 471.688 387.123 454.243 379.268L452.134 378.372C451.63 369.192 455.922 362.886 452.843 353.464C452.489 352.437 452.153 351.411 451.78 350.404C458.87 346.523 466.165 343.705 474.002 341.709C475.923 339.974 477.808 338.089 479.898 336.466C483.013 335.906 485.682 335.477 488.368 333.667Z" fill="#F2A68E"/>
<path d="M341.36 278.308C349.458 278.271 358.974 278.178 367.09 278.047C373.546 277.711 379.311 279.633 385.767 277.842C392.409 278.402 397.895 281.76 404.425 278.122C410.62 278.737 416.404 278.14 422.747 278.905C424.371 280.939 427.487 282.768 428.214 285.286C428.979 290.231 433.159 290.921 430.864 296.425C422.561 298.814 412.989 297.713 404.518 296.892C405.974 299.094 407.485 301.258 409.071 303.366C407.28 310.307 413.362 312.192 413.064 318.573C413.194 323.741 413.139 328.723 414.202 333.798C413.008 337.455 410.918 340.048 411.422 344.041C412.15 346.635 414.221 349.601 412.635 352.195C410.321 355.87 412.448 359.285 409.388 362.569C406.403 366.3 405.825 369.043 405.339 373.726C399.014 377.701 396.551 385.854 390.376 389.063C386.663 390.836 383.491 392.888 379.349 393.691C375.188 395.071 370.971 393.97 366.904 395.762C363.302 396.508 359.757 396.116 356.1 396.097C348.021 393.187 340.521 390.668 332.946 386.526C331.117 383.317 328.747 381.992 325.781 380.051C324.997 378.018 325.426 374.734 323.206 373.782C319.68 371.954 318.336 368.595 317.123 365.013C316.377 358.035 313.821 351.784 314.437 344.638C315.314 340.888 312.851 338.033 314.287 334.432C315.426 331.41 313.765 329.189 313.597 326.167C314.25 324.991 314.94 323.816 315.668 322.659C314.828 316.483 316.844 310.997 318.187 305.101C322.87 298.254 317.049 291.108 319.736 284.484C322.18 282.898 325.053 282.637 327.274 280.734C331.117 277.245 336.472 280.547 341.36 278.308Z" fill="#5C5650"/>
<path d="M389.293 297.526C394.592 301.762 397.484 306.911 398.753 313.516C395.824 314.71 393.23 315.979 390.954 318.218C380.449 326.708 368.788 333.947 356.921 340.403C351.38 348.053 344.01 351.859 336.491 357.139C334.345 357.456 332.181 357.624 329.998 357.662C328.971 355.758 327.759 353.949 326.844 351.99C327.236 335.328 324.811 320.401 330.016 303.795C330.576 301.5 332.106 299.933 334.606 299.112C329.774 304.747 329.214 311.035 332.759 317.528C336.92 320.177 341.846 321.166 346.193 318.311C351.1 316.371 355.074 315.289 357.145 309.878C358.209 306.221 359.496 302.751 359.496 298.888C363.377 298.254 366.736 299.915 370.467 298.03C377.147 295.343 382.129 298.403 389.293 297.526Z" fill="#D5714D"/>
<path d="M345.111 298.478C350.466 296.146 354.197 299.896 359.496 298.888C359.496 302.751 358.209 306.221 357.145 309.878C355.074 315.289 351.1 316.371 346.193 318.312C341.845 321.166 336.92 320.177 332.759 317.528C329.214 311.035 329.774 304.747 334.606 299.112C338.002 298.049 341.566 300.717 345.111 298.478Z" fill="white"/>
<path d="M398.753 313.516C402.354 318.89 401.291 323.834 401.291 329.898C398.716 337.66 401.197 346.653 399.555 354.77C394.126 359.098 396.551 365.125 392.316 369.883C390.767 373.129 387.017 373.26 385.356 376.115C383.864 380.182 378.098 380.518 374.591 382.664C370.131 382.701 367.09 383.746 363.004 385.201C358.451 386.545 356.847 381.246 352.22 381.637C347.126 382.104 345.073 379.622 341.715 376.394C352.182 364.024 369.516 358.315 381.737 347.941C382.931 345.963 380.561 343.015 379.759 341.168C375.654 339.936 371.251 343.724 367.65 345.441C359.571 351.355 350.466 354.9 342.89 361.58C339.886 364.509 336.379 366.188 332.591 367.868C331.378 366.3 330.259 364.658 329.195 362.942C329.419 361.188 329.68 359.416 329.998 357.662C332.181 357.624 334.345 357.456 336.491 357.139C344.01 351.859 351.38 348.053 356.921 340.403C368.788 333.947 380.449 326.708 390.954 318.218C393.23 315.979 395.824 314.71 398.753 313.516Z" fill="#E6B485"/>
<path d="M379.759 341.168C380.561 343.015 382.931 345.963 381.737 347.941C369.516 358.315 352.182 364.024 341.715 376.394C338.375 373.689 335.035 371.487 332.591 367.868C336.379 366.188 339.886 364.509 342.89 361.58C350.466 354.9 359.571 351.355 367.65 345.441C371.251 343.724 375.654 339.936 379.759 341.168Z" fill="#D5714D"/>
<path d="M169.22 277.842C175.694 279.633 181.46 277.711 187.934 278.047C198.644 278.458 208.981 277.637 219.485 279.148C226.333 277.805 229.057 282.525 235.289 284.484C237.453 289.597 234.094 295.866 235.139 301.314C238.05 307.714 239.972 315.587 239.356 322.659C240.084 323.816 240.774 324.991 241.427 326.167C241.147 328.088 240.755 330.01 240.252 331.913C240.793 335.496 242.92 338.537 239.114 341.186C243.405 348.221 237.714 356.934 238.834 364.099C236.427 367.774 235.979 371.693 231.762 373.801C229.635 374.678 230.008 378.13 229.243 380.051C226.277 381.992 223.907 383.317 222.079 386.526C216.556 388.951 211.705 392.123 205.734 393.597C202.208 394.81 199.11 396.34 195.248 396.153C192.524 396.452 189.949 396.247 187.486 395.538C183.27 394.045 178.624 394.922 174.314 393.299C169.873 392.552 166.869 389.474 162.596 388.168C158.025 383.335 155.133 377.589 149.648 373.67C149.871 367.047 146.644 364.733 143.845 359.453C144.722 353.818 139.927 351.56 142.781 346.56C145.226 342.063 142.24 338.015 140.822 333.798C142.501 327.473 141.158 320.662 142.613 314.431C145.188 310.214 146.756 308.665 145.953 303.366C147.539 301.258 149.05 299.094 150.506 296.892C142.035 297.713 132.463 298.814 124.16 296.425C121.865 290.921 126.045 290.231 126.81 285.286C127.538 282.768 130.653 280.939 132.295 278.905C138.621 278.14 144.405 278.737 150.599 278.122C157.129 281.741 162.615 278.42 169.22 277.842Z" fill="#5C5650"/>
<path d="M184.464 297.974C185.844 299.019 187.561 299.411 189.613 299.131C188.662 304.075 186.945 308.777 184.538 313.199C181.478 315.849 178.195 318.256 175.06 320.83C171.608 321.539 167.783 322.267 164.276 321.614C160.04 319.897 157.148 317.024 156.253 312.434C157.297 306.575 160.898 300.586 165.694 297.097C173.511 299.467 176.721 294.56 184.464 297.974Z" fill="white"/>
<path d="M206.648 298.235C212.041 299.261 216.201 299.28 221.687 298.795C227.247 304.672 227.434 315.419 228.273 323.144C219.187 332.548 207.283 336.802 196.834 344.209C190.49 351.019 181.404 352.941 175.265 359.938C171.683 364.211 166.794 366.058 162.372 369.23C160.245 366.58 160.208 363.67 159.163 360.479C158.715 357.886 155.618 356.188 155.357 353.631C154.909 347.549 154.629 341.317 155.282 335.253C153.043 327.006 152.894 320.345 156.252 312.434C157.148 317.024 160.04 319.897 164.276 321.614C167.783 322.267 171.608 321.539 175.06 320.83C178.195 318.256 181.478 315.849 184.538 313.199C186.945 308.777 188.662 304.075 189.613 299.131C195.211 298.291 200.976 298.832 206.648 298.235Z" fill="#D5714D"/>
<path d="M228.273 323.144C229.038 332.921 227.732 342.437 228.31 352.195C224.859 356.468 225.157 357.606 225.68 363.017C222.209 370.89 215.716 374.155 209.708 379.697C207.04 382.309 203.719 381.264 200.323 381.805C198.439 382.869 196.759 384.212 194.931 385.369C190.863 385.836 188.083 383.074 184.202 383.018C180.713 383.167 178.437 381.88 175.433 380.369C178.717 376.376 183.008 374.211 187.654 372.234C193.14 369.976 196.815 365.237 202.301 362.867C208.066 359.527 217.19 356.841 219.877 350.329C219.112 349.135 218.254 347.997 217.283 346.896C210.604 345.217 205.062 351.56 198.98 353.855C193.7 355.74 189.483 359.098 184.762 362.009C178.81 366.338 172.317 366.879 168.212 373.633C164.574 373.521 164.257 371.916 162.372 369.23C166.794 366.058 171.683 364.211 175.265 359.938C181.404 352.941 190.49 351.019 196.834 344.209C207.283 336.802 219.187 332.548 228.273 323.144Z" fill="#E6B485"/>
<path d="M217.283 346.896C218.254 347.997 219.112 349.135 219.877 350.329C217.19 356.841 208.066 359.527 202.301 362.867C196.815 365.237 193.14 369.976 187.654 372.234C183.008 374.211 178.717 376.376 175.433 380.369C171.179 379.137 170.377 377.253 168.212 373.633C172.317 366.879 178.81 366.338 184.762 362.009C189.483 359.098 193.7 355.74 198.98 353.855C205.062 351.56 210.604 345.217 217.283 346.896Z" fill="#D5714D"/>
<path d="M150.636 377.514C157.596 384.604 160.208 394.008 167.559 400.762C167.839 402.367 168.119 403.99 168.418 405.595C173.996 413.17 180.564 421.211 183.493 430.242C178.344 428.283 173.828 430.41 169.63 426.156C166.645 420.167 161.048 416.024 158.398 409.643C155.114 400.146 147.894 393.411 144.479 383.988C143.957 379.529 145.524 375.928 150.636 377.514Z" fill="#F2B986"/>
<path d="M123.302 386.489C125.97 384.94 128.564 384.25 130.728 387.03C136.549 394.194 137.445 403.076 143.584 410.147C143.061 412.032 142.445 413.897 141.774 415.745C134.124 411.602 129.609 405.613 123.825 399.4C123.694 395.221 122.257 390.575 123.302 386.489Z" fill="#F2B986"/>
<path d="M174.314 393.299C178.624 394.922 183.27 394.045 187.486 395.538C189.949 403.412 195.938 409.438 200.528 416.08C202.805 420.708 202.04 428.936 195.024 428.022C192.263 424.589 189.501 420.446 187.188 416.64C184.314 408.057 177.168 401.77 174.314 393.299Z" fill="#F2B986"/>
<path d="M205.734 393.597C209.615 398.169 212.395 403.374 215.38 408.524C215.455 409.923 215.38 411.323 215.138 412.759C210.865 415.409 205.902 413.524 203.626 409.289C201.014 404.774 198.066 400.538 195.248 396.153C199.11 396.34 202.208 394.81 205.734 393.597Z" fill="#F2B986"/>
<path d="M407.877 378.298C414.034 381.861 419.426 387.366 422.524 393.803C425.285 397.422 429.614 398.71 426.722 404.027C425.154 405.52 423.867 407.274 422.225 408.692C414.333 400.501 406.832 392.198 401.421 382.104C401.067 378.951 405.097 375.909 407.877 378.298Z" fill="#F2B986"/>
<path d="M390.375 389.063C390.935 390.724 391.532 392.366 392.185 393.989C397.354 398.001 399.686 403.486 403.53 409.046C405.731 411.994 407.205 416.025 411.31 416.472C407.765 417.984 405.022 420.446 401.123 421.174C397.783 418.282 394.107 416.659 392.484 412.256C389.237 405.128 382.371 400.743 379.349 393.691C383.491 392.888 386.663 390.836 390.375 389.063Z" fill="#F2B986"/>
<path d="M342.424 395.37C348.842 398.654 350.372 404.233 354.365 409.662C356.642 412.965 358.265 416.472 357.089 420.54C355.429 421.697 353.787 422.088 352.182 421.734C344.868 415.353 339.924 407.404 335.576 398.84C335.632 395.258 339.439 393.262 342.424 395.37Z" fill="#F2B986"/>
<path d="M356.1 396.098C359.757 396.116 363.302 396.508 366.904 395.762C369.292 398.784 370.952 402.479 373.751 405.128C379.666 410.894 384.349 417.704 386.625 425.708C384.256 426.977 382.39 428.563 379.535 428.339C374.74 422.779 370.672 416.808 365.392 411.677C362.426 406.378 358.75 401.546 356.1 396.098Z" fill="#F2B986"/>
<path d="M379.349 393.221C382.371 400.274 389.237 404.659 392.484 411.786C394.107 416.19 397.783 417.813 401.123 420.705C398.585 421.862 396.178 421.843 393.454 422.086C391.215 423.41 389.293 424.903 386.625 425.239C384.349 417.235 379.666 410.424 373.751 404.659C370.952 402.01 369.292 398.315 366.904 395.293C370.971 393.501 375.188 394.602 379.349 393.221Z" fill="#FDF6E9"/>
<path d="M287.494 409.681C288.129 412.834 288.688 416.174 284.658 416.92C279.359 417.032 272.736 418.096 267.81 415.931C266.84 413.412 266.84 411.901 267.828 409.382C273.874 407.274 281.617 406.994 287.494 409.681Z" fill="#5A5252"/>
</svg>
